<svg width="1133" height="300" fill="none" xmlns="http://www.w3.org/2000/svg"><g clip-path="url(#a)"><path fill-rule="evenodd" clip-rule="evenodd" d="M202.5 1.405h32.363v30.667h15.142V1.404h32.356V92.24h-32.363V58.297h-15.141v33.944H202.5V1.405zM600.325 92.24h32.363V59.325c1.046-.105 2.138-.105 2.97-.105 7.766 0 8.838 3.87 10.138 13.67l.845 6.736c.481 4.07 1.416 8.206 2.508 12.615h32.805c-1.423-6.717-2.495-12.12-2.989-16.172l-1.072-9.702c-1.534-13.09-4.303-18.656-15.857-20.711 11.223-3.16 16.929-10.203 16.929-21.173 0-18.162-11.087-23.085-34.716-23.085h-43.93v90.843h.006zm32.363-53.361V21.72c1.384-.144 2.619-.144 3.685-.144 7.278 0 10.495 2.413 10.495 8.07 0 5.8-4.048 9.305-11.801 9.305-.722 0-1.579 0-2.372-.078l-.007.007zm127.373 24.216v.728c0 6.21 2.612 9.065 8.201 9.065 5.05 0 8.019-2.614 8.019-6.515 0-2.927-1.202-5.17-3.366-6.295-4.406-2.283-12.165-3.57-22.29-6.978-13.849-4.662-20.308-11.835-20.308-24.567C730.317 10.736 743.944 0 768.997 0c22.777 0 34.819 8.948 34.819 24.97v1.9h-28.503c-.37-5.43-2.729-8.064-7.512-8.064-4.406 0-7.155 2.633-7.155 6.047 0 6.354 5.966 6.087 16.831 9.247 19.951 5.619 29.471 11.432 29.471 27.93 0 19.235-14.55 31.72-39.394 31.72-25.182 0-38.55-10.053-38.55-27.376 0-1.002 0-2.1.143-3.278h30.914zM342.058 1.405h64.316V24.71h-31.856v9.859h29.588v23.344h-29.588v10.723h32.922v23.599h-65.376l-.006-90.83zM922.494 25.62h-20.66v66.62h-33.142V25.62h-20.796V1.405H922.5l-.006 24.216zM454.133 92.39h32.61l3.171-14.547h24.974l2.989 14.547h35.437L526.228 1.398h-43.677l-28.418 90.993zm56.069-36.708h-15.258l7.915-35.876 7.343 35.876z" fill="#4C759F"/><path d="M0 136.25h1132.5" stroke="#99989D" stroke-width=".75"/><path opacity=".755" fill-rule="evenodd" clip-rule="evenodd" d="M186.753 205.569c.215.613.449 1.325.696 2.134l.781 2.513c.273.869.533 1.73.78 2.598.254.862.468 1.659.651 2.377h.104l.696-2.377a142.416 142.416 0 0 1 2.309-7.245l7.414-21.124h10.212v37.717h-6.231v-24.1c0-.94.013-1.919.026-2.944l.058-3.107a94.46 94.46 0 0 1 .078-2.918h-.11c-.247.757-.521 1.586-.8 2.48l-.865 2.651c-.272.819-.541 1.639-.807 2.461-.247.77-.481 1.436-.696 1.971l-8.65 23.5h-5.971l-8.488-23.069a91.267 91.267 0 0 1-2.471-7.566 156.61 156.61 0 0 1-.703-2.428h-.104c.082 2.007.116 4.016.104 6.025v27.044h-6.016v-37.717h10.478l7.525 21.124zm70.186 16.593h-21.815v-37.717h21.496v5.457h-15.05v10.21h13.918v5.3H241.57v11.293h15.369v5.457zm47.883-37.717h5.97v37.717h-8.331l-11.396-21.45c-.456-.883-.911-1.766-1.365-2.65a79.671 79.671 0 0 1-1.373-2.781l-1.21-2.624a66.505 66.505 0 0 1-.943-2.154h-.104c.095 1.8.158 3.602.189 5.405l.052 3.264c.019 1.096.026 2.043.026 2.833v20.157h-6.016v-37.717h9.079l11.018 21.235c.358.685.742 1.449 1.158 2.297l1.262 2.592a91.74 91.74 0 0 1 1.21 2.591l.988 2.246h.111c-.046-.9-.083-1.801-.111-2.702l-.104-3.538a259.583 259.583 0 0 1-.11-6.835v-17.886zm33.482 11.025h-4.995l3.33-12.97h6.29l-4.618 12.97h-.007zm45.522-4.863a18.948 18.948 0 0 0-3.87-1.273 17.743 17.743 0 0 0-3.44-.352c-2.01 0-3.61.444-4.813 1.325a4.075 4.075 0 0 0-1.795 3.434 4.015 4.015 0 0 0 1.314 3.244c.52.503 1.229 1.005 2.12 1.508.897.502 2.062 1.044 3.499 1.619 3.363 1.338 5.802 2.872 7.304 4.595 1.509 1.73 2.257 3.93 2.257 6.593 0 1.73-.325 3.303-.963 4.726a10.334 10.334 0 0 1-2.718 3.623 12.739 12.739 0 0 1-4.215 2.324 17.186 17.186 0 0 1-5.535.835c-1.723 0-3.343-.13-4.865-.378a22.195 22.195 0 0 1-4.488-1.241l.651-5.835a17.529 17.529 0 0 0 8.273 2.108c2.146 0 3.896-.47 5.236-1.41a4.523 4.523 0 0 0 1.521-1.707 4.55 4.55 0 0 0 .495-2.236 6.18 6.18 0 0 0-.325-2.049 4.51 4.51 0 0 0-1.152-1.73 10.712 10.712 0 0 0-2.23-1.599 31.195 31.195 0 0 0-3.545-1.645 27.394 27.394 0 0 1-4.358-2.135 12.248 12.248 0 0 1-2.875-2.402 8.221 8.221 0 0 1-1.587-2.787 10.903 10.903 0 0 1-.481-3.375c0-1.586.306-3.035.911-4.348a9.381 9.381 0 0 1 2.582-3.348c1.105-.921 2.452-1.632 4.032-2.135 1.574-.509 3.317-.757 5.21-.757 1.509 0 2.946.104 4.332.326 1.379.209 2.764.575 4.162 1.077l-.65 5.405h.006zm83.623 11.019c-.11 2.742-.566 5.17-1.372 7.298a21.718 21.718 0 0 1-3.142 5.673l6.875 7.565h-7.74l-3.115-3.623a16.593 16.593 0 0 1-5.054 3.245 16.067 16.067 0 0 1-5.801.972c-1.932 0-3.688-.254-5.269-.757a12.008 12.008 0 0 1-4.058-2.161 9.5 9.5 0 0 1-2.602-3.407 10.537 10.537 0 0 1-.91-4.426c0-4.902 2.894-8.525 8.702-10.862a18.816 18.816 0 0 1-3.226-4.321 9.373 9.373 0 0 1-1.132-4.374c0-1.305.273-2.474.807-3.518a8.117 8.117 0 0 1 2.211-2.677c.924-.737 2.029-1.292 3.298-1.671 1.275-.378 2.666-.568 4.162-.568 1.477 0 2.843.17 4.117.51 1.269.346 2.374.855 3.304 1.54a7.514 7.514 0 0 1 2.205 2.546c.534 1.005.807 2.174.807 3.505 0 2.311-.755 4.263-2.257 5.869-1.509 1.599-3.642 3.048-6.4 4.347l7.577 8.701c.826-1.266 1.418-2.689 1.776-4.269.358-1.586.572-3.296.65-5.137h5.587zm-18.276-2.591a15.226 15.226 0 0 0 4.032-2.781 5.369 5.369 0 0 0 1.613-3.976c0-1.331-.455-2.31-1.366-2.937a5.58 5.58 0 0 0-3.252-.953 4.983 4.983 0 0 0-3.226 1.084 3.542 3.542 0 0 0-1.346 2.917c0 .934.26 1.926.781 2.971.52 1.044 1.437 2.271 2.764 3.675zm-2.361 5.724c-1.938.829-3.291 1.848-4.059 3.055a7.143 7.143 0 0 0-1.157 3.917 5.797 5.797 0 0 0 2.126 4.537 7.1 7.1 0 0 0 2.277 1.24 8.448 8.448 0 0 0 2.745.437c1.365 0 2.627-.215 3.791-.653 1.165-.43 2.264-1.168 3.304-2.212l-9.027-10.314v-.007zm93.619 17.403h-21.827v-37.717H540.1v5.457h-15.051v10.21h13.919v5.3h-13.919v11.293h15.376v5.457h.006zm47.883-37.717h5.964v37.717h-8.325l-11.401-21.45-1.366-2.65a79.671 79.671 0 0 1-1.373-2.781l-1.209-2.624a62.382 62.382 0 0 1-.943-2.154h-.104c.094 1.8.157 3.602.188 5.405l.052 3.264c.02 1.096.026 2.043.026 2.833v20.157h-6.016v-37.717h9.08l11.017 21.235c.358.685.742 1.449 1.158 2.297l1.262 2.592a91.74 91.74 0 0 1 1.21 2.591l.995 2.246h.104c-.043-.9-.078-1.801-.104-2.702l-.111-3.538a263.974 263.974 0 0 1-.104-6.835v-17.886zm37.672 37.717v-32.26l-10.966.164v-5.621h28.429v5.614l-10.907-.157v32.26h-6.556zm67.772 0h-6.504v-16.75h-16.501v16.75h-6.556v-37.717h6.556v15.451h16.495v-15.451h6.504v37.717h.006zm54.218-15.777c0 5.15-1.236 9.171-3.707 12.076-2.472 2.898-6.27 4.347-11.389 4.347-2.764 0-5.08-.391-6.959-1.162a11.045 11.045 0 0 1-4.547-3.322 13.395 13.395 0 0 1-2.471-5.19 28.028 28.028 0 0 1-.748-6.749v-21.94h6.556v21.398c0 1.834.143 3.486.429 4.941.286 1.463.748 2.696 1.399 3.702a6.28 6.28 0 0 0 2.549 2.297c1.06.523 2.374.784 3.948.784 1.613 0 2.966-.261 4.059-.784a6.573 6.573 0 0 0 2.666-2.297c.677-1.006 1.158-2.239 1.444-3.702.286-1.455.43-3.107.43-4.941v-21.398h6.341v21.94zm42.732-15.778a18.969 18.969 0 0 0-3.877-1.273 17.674 17.674 0 0 0-3.434-.352c-2.01 0-3.61.444-4.813 1.325a4.077 4.077 0 0 0-1.801 3.434c0 .613.091 1.175.273 1.697.175.522.52 1.044 1.04 1.54.521.51 1.236 1.012 2.127 1.515.898.502 2.062 1.044 3.493 1.619 3.369 1.338 5.808 2.872 7.31 4.595 1.503 1.73 2.257 3.93 2.257 6.593 0 1.73-.325 3.303-.969 4.726a10.247 10.247 0 0 1-2.712 3.623 12.738 12.738 0 0 1-4.221 2.324 17.178 17.178 0 0 1-5.529.835c-1.723 0-3.343-.13-4.871-.378a22.195 22.195 0 0 1-4.488-1.241l.65-5.835c1.574.79 3.038 1.338 4.378 1.645 1.346.307 2.64.457 3.902.457 2.147 0 3.89-.464 5.236-1.404a4.538 4.538 0 0 0 2.016-3.943 6.18 6.18 0 0 0-.325-2.049 4.509 4.509 0 0 0-1.158-1.73 10.71 10.71 0 0 0-2.224-1.599 31.03 31.03 0 0 0-3.551-1.645 27.394 27.394 0 0 1-4.358-2.135 12.237 12.237 0 0 1-2.868-2.402 8.205 8.205 0 0 1-1.587-2.787 10.904 10.904 0 0 1-.482-3.375c0-1.586.306-3.035.911-4.348a9.381 9.381 0 0 1 2.582-3.348c1.106-.921 2.452-1.632 4.033-2.135 1.573-.509 3.31-.757 5.209-.757 1.503 0 2.947.104 4.325.326 1.379.209 2.771.575 4.163 1.077l-.644 5.405h.007zm31.434 31.555h-6.504v-37.717h6.504v37.717zm58.361 0h-7.142l-3.603-9.073H852.88l-3.597 9.073h-6.77l15.317-37.717h7.089l15.584 37.717zm-16.657-24.746a50.835 50.835 0 0 1-.618-1.73 308.48 308.48 0 0 0-.728-2.109 39.682 39.682 0 0 1-.67-2.108l-.508-1.73h-.11c-.143.47-.325 1.045-.566 1.73l-.696 2.108a58.424 58.424 0 0 1-.728 2.109c-.248.685-.462 1.26-.644 1.73l-3.922 10.588h13.164l-3.974-10.588zm55.512-6.809a18.907 18.907 0 0 0-3.863-1.273 17.667 17.667 0 0 0-3.447-.352c-2.004 0-3.604.444-4.807 1.325a4.09 4.09 0 0 0-1.802 3.434c0 .613.091 1.175.274 1.697.175.522.526 1.044 1.04 1.54.521.51 1.236 1.012 2.127 1.515.898.502 2.062 1.044 3.493 1.619 3.369 1.338 5.808 2.872 7.31 4.595 1.503 1.73 2.257 3.93 2.257 6.593 0 1.73-.325 3.303-.969 4.726a10.247 10.247 0 0 1-2.712 3.623 12.738 12.738 0 0 1-4.221 2.324 17.178 17.178 0 0 1-5.529.835c-1.723 0-3.343-.13-4.865-.378a22.195 22.195 0 0 1-4.488-1.241l.644-5.835c1.574.79 3.038 1.338 4.378 1.645 1.346.307 2.647.457 3.902.457 2.146 0 3.89-.464 5.236-1.404a4.538 4.538 0 0 0 2.016-3.943 6.18 6.18 0 0 0-.325-2.049 4.519 4.519 0 0 0-1.151-1.73 10.718 10.718 0 0 0-2.231-1.599 31.11 31.11 0 0 0-3.551-1.645 27.42 27.42 0 0 1-4.352-2.135 12.223 12.223 0 0 1-2.874-2.402 8.188 8.188 0 0 1-1.587-2.787 10.904 10.904 0 0 1-.482-3.375c0-1.586.306-3.035.911-4.348a9.381 9.381 0 0 1 2.582-3.348c1.106-.921 2.452-1.632 4.033-2.135 1.573-.509 3.317-.757 5.209-.757 1.503 0 2.947.104 4.325.326 1.379.209 2.771.575 4.163 1.077l-.644 5.405zm31.929 31.555v-32.26l-10.966.164v-5.621h28.429v5.614l-10.907-.157v32.26h-6.556zM327.69 282.758c.214.614.455 1.326.702 2.135l.781 2.513.78 2.598c.247.862.456 1.658.638 2.376h.11l.696-2.376a141.536 141.536 0 0 1 2.316-7.246l7.414-21.123h10.212v37.717h-6.238v-24.1c0-.94.013-1.92.033-2.944l.052-3.108c.019-1.044.045-2.023.078-2.917h-.104c-.254.757-.521 1.586-.807 2.48-.286.907-.572 1.789-.865 2.65l-.8 2.461a34.48 34.48 0 0 1-.702 1.972l-8.651 23.499h-5.964l-8.494-23.069a91.13 91.13 0 0 1-2.472-7.565c-.238-.808-.47-1.617-.696-2.428h-.11c.083 2.007.12 4.016.11 6.025v27.037h-6.022v-37.717h10.478l7.525 21.124v.006zm70.185 16.594h-21.814v-37.717h21.496v5.457h-15.051v10.209h13.919v5.301h-13.919v11.293h15.369v5.457zm32.573-37.717c3.148 0 6.1.333 8.839.999 2.738.665 5.112 1.762 7.122 3.263 2.003 1.521 3.577 3.48 4.728 5.895 1.145 2.415 1.717 5.366 1.717 8.865 0 3.309-.585 6.149-1.743 8.505a15.928 15.928 0 0 1-4.787 5.81 20.164 20.164 0 0 1-7.115 3.329 35.012 35.012 0 0 1-8.761 1.044h-9.191v-37.71h9.191zm-2.687 32.527h2.043c2.289 0 4.429-.235 6.419-.705a14.35 14.35 0 0 0 5.184-2.291c1.47-1.064 2.615-2.461 3.447-4.191.82-1.73 1.236-3.871 1.236-6.429 0-2.703-.416-4.929-1.236-6.672a10.334 10.334 0 0 0-3.447-4.164 13.894 13.894 0 0 0-5.184-2.155 31.452 31.452 0 0 0-6.419-.626h-2.043v27.233zm54.277 5.19h-6.504v-37.717h6.504v37.717zm58.361 0h-7.148l-3.597-9.074h-16.878l-3.597 9.074h-6.77l15.31-37.717h7.096l15.584 37.717zm-16.657-24.747a48.011 48.011 0 0 1-.618-1.729 308.48 308.48 0 0 0-.728-2.109c-.243-.696-.466-1.4-.67-2.108-.165-.578-.334-1.155-.508-1.73h-.11a42.12 42.12 0 0 1-.566 1.73c-.234.685-.462 1.39-.696 2.108a56.54 56.54 0 0 1-.729 2.109 80.244 80.244 0 0 1-.643 1.729l-3.922 10.588h13.164l-3.974-10.588zm94.101-5.62a18.403 18.403 0 0 0-4.54-1.73 21.879 21.879 0 0 0-5.294-.653c-2.114 0-4.039.327-5.776.98-1.737.646-3.226 1.566-4.462 2.78-1.236 1.208-2.192 2.657-2.875 4.348-.683 1.697-1.021 3.59-1.021 5.679 0 2.089.325 3.982.969 5.699.644 1.71 1.561 3.165 2.765 4.373 1.203 1.208 2.653 2.135 4.357 2.781 1.698.653 3.604.979 5.724.979.819 0 1.652-.039 2.497-.111a14.768 14.768 0 0 0 2.498-.431v-10.216h-8.007v-5.241h14.296v19.668a38.18 38.18 0 0 1-5.938 1.403 39.575 39.575 0 0 1-5.886.437c-3.011 0-5.75-.457-8.221-1.351a18.322 18.322 0 0 1-6.4-3.89 17.456 17.456 0 0 1-4.163-6.136 21.061 21.061 0 0 1-1.476-8.075c0-2.885.507-5.496 1.528-7.833a17.278 17.278 0 0 1 4.299-6.006c1.848-1.651 4.059-2.937 6.635-3.831a25.783 25.783 0 0 1 8.546-1.352c1.828 0 3.603.118 5.32.353a22.64 22.64 0 0 1 5.106 1.325l-.481 6.051zm25.261-7.35h10.101c2.296 0 4.358.163 6.205.483 1.847.326 3.421.868 4.729 1.625 1.313.758 2.315 1.763 3.011 3.023.702 1.259 1.047 2.846 1.047 4.758 0 2.559-.741 4.544-2.231 5.967-1.483 1.423-3.466 2.389-5.938 2.891v.111c1.294.392 2.296 1.006 3.011 1.835.716.829 1.379 1.925 1.991 3.296l6.068 13.728h-7.2L659.117 288a17.803 17.803 0 0 0-1.157-2.402 4.724 4.724 0 0 0-1.399-1.514 5.215 5.215 0 0 0-2.042-.784 18.049 18.049 0 0 0-3.089-.215h-1.821v16.267h-6.505v-37.717zm6.505 16.267h2.413c3.154 0 5.528-.424 7.122-1.273 1.593-.849 2.393-2.298 2.393-4.347a5.168 5.168 0 0 0-.65-2.729 4.193 4.193 0 0 0-1.854-1.625 9.836 9.836 0 0 0-2.979-.784 33.743 33.743 0 0 0-4.032-.215h-2.42v10.966l.007.007zm58.679-16.913c2.686 0 5.138.457 7.337 1.37 2.205.921 4.084 2.22 5.645 3.897 1.561 1.672 2.758 3.702 3.597 6.071.846 2.383 1.268 5.046 1.268 8.003 0 3.029-.429 5.758-1.294 8.186-.858 2.435-2.081 4.491-3.681 6.188-1.594 1.697-3.512 3.003-5.75 3.917-2.237.914-4.754 1.377-7.545 1.377a19.58 19.58 0 0 1-7.499-1.377 16.459 16.459 0 0 1-5.756-3.891 17.116 17.116 0 0 1-3.681-6.103 23.777 23.777 0 0 1-1.288-8.081c0-3.062.429-5.797 1.288-8.212.865-2.415 2.101-4.459 3.707-6.136a16.262 16.262 0 0 1 5.86-3.858 21.177 21.177 0 0 1 7.792-1.351zm-.429 5.13c-1.685 0-3.207.34-4.566 1.025-1.366.686-2.543 1.658-3.545 2.918a13.53 13.53 0 0 0-2.315 4.543 20.184 20.184 0 0 0-.807 5.888c0 2.154.274 4.132.807 5.914.54 1.782 1.307 3.297 2.315 4.544 1.002 1.24 2.192 2.206 3.571 2.885 1.379.685 2.927 1.031 4.65 1.031a10.064 10.064 0 0 0 4.519-1.017 10.114 10.114 0 0 0 3.592-2.932 13.542 13.542 0 0 0 2.316-4.537c.558-1.911.829-3.896.806-5.888 0-2.199-.273-4.19-.806-5.972a13.5 13.5 0 0 0-2.283-4.537 10.015 10.015 0 0 0-3.578-2.866 10.723 10.723 0 0 0-4.676-.999zm70.569 17.455c0 5.151-1.236 9.172-3.707 12.077-2.472 2.898-6.277 4.347-11.402 4.347-2.758 0-5.073-.392-6.959-1.162a11.028 11.028 0 0 1-4.54-3.323 13.407 13.407 0 0 1-2.472-5.189 28.036 28.036 0 0 1-.754-6.75v-21.939h6.563v21.398c0 1.834.143 3.485.429 4.941.286 1.462.748 2.696 1.392 3.701a6.287 6.287 0 0 0 2.556 2.298c1.053.522 2.374.783 3.948.783 1.613 0 2.966-.261 4.058-.783a6.578 6.578 0 0 0 2.667-2.298c.676-1.005 1.158-2.239 1.444-3.701.286-1.456.429-3.107.429-4.941v-21.398h6.342v21.933l.006.006zm33.366-21.939c2.12 0 4.117.163 5.997.483 1.879.326 3.518.914 4.917 1.762 1.398.849 2.504 2.017 3.33 3.512.826 1.495 1.236 3.395 1.236 5.699 0 2.265-.423 4.152-1.262 5.646-.846 1.495-1.977 2.677-3.415 3.538-1.431.862-3.076 1.476-4.943 1.835a30.83 30.83 0 0 1-5.854.541h-2.53v14.701h-6.504v-37.717h9.034-.006zm-2.524 17.833h2.043c1.431 0 2.731-.091 3.902-.274a8.696 8.696 0 0 0 2.979-.972 4.677 4.677 0 0 0 1.88-1.946c.429-.829.65-1.873.65-3.133 0-1.227-.215-2.239-.624-3.055a4.76 4.76 0 0 0-1.821-1.945 8.414 8.414 0 0 0-2.96-1.025c-1.342-.21-2.7-.309-4.058-.294h-1.991v12.644z" fill="#99989D"/></g><defs><clipPath id="a"><path fill="#fff" d="M0 0h1132.5v300H0z"/></clipPath></defs></svg>